<?xml version="1.0" encoding="UTF-8"?>
<svg id="Layer_1" xmlns="http://www.w3.org/2000/svg" version="1.1" viewBox="0 0 972.86 985.73">
  <!-- Generator: Adobe Illustrator 29.4.0, SVG Export Plug-In . SVG Version: 2.1.0 Build 152)  -->
  <defs>
    <style>
      .st0 {
        fill: #d2e1cc;
      }

      .st1 {
        fill: #b2e1a0;
      }

      .st2 {
        fill: #2e870e;
      }

      .st3 {
        fill: #a4c399;
      }

      .st4 {
        fill: #d8f0d0;
      }

      .st5 {
        fill: none;
        stroke: #1c6800;
        stroke-miterlimit: 10;
        stroke-width: 7px;
      }

      .st6 {
        fill: #77a466;
      }

      .st7 {
        fill: #64c341;
      }
    </style>
  </defs>
  <g>
    <path class="st0" d="M462.24,450.96c2.02,8.89,5.12,17.01,9.34,24.2-6.36-5.4-13.82-9.87-22.23-13.41-5.5-8.52-10.07-18.39-13.7-29.39,10.22,5.48,19.15,11.7,26.59,18.6Z"/>
    <path class="st0" d="M478.02,445.2c-1.13,9.05-.99,17.75.5,25.95-4.12-7.24-9.6-13.99-16.28-20.19-2.27-9.9-3.19-20.75-2.83-32.34,7.72,8.65,13.98,17.55,18.61,26.58Z"/>
    <path class="st0" d="M486.43,413.87c4.3,10.76,7.14,21.27,8.41,31.33-4.17,8.12-7.02,16.34-8.41,24.56-1.39-8.22-4.24-16.44-8.41-24.56,1.27-10.06,4.11-20.57,8.41-31.33Z"/>
    <path class="st0" d="M513.45,418.62c.36,11.59-.56,22.44-2.83,32.34-6.68,6.2-12.16,12.95-16.28,20.19,1.49-8.2,1.63-16.9.5-25.95,4.63-9.03,10.89-17.93,18.61-26.58Z"/>
    <path class="st0" d="M537.21,432.36c-3.63,11-8.2,20.87-13.7,29.39-8.41,3.54-15.87,8.01-22.23,13.41,4.22-7.19,7.32-15.31,9.34-24.2,7.44-6.9,16.37-13.12,26.59-18.6Z"/>
    <path class="st0" d="M554.84,453.37c-7.16,9.1-14.84,16.81-22.92,22.94-9.11.45-17.65,2.1-25.47,5,6.42-5.32,12.12-11.89,17.06-19.56,9.35-3.94,19.87-6.73,31.33-8.38Z"/>
    <path class="st0" d="M531.92,476.31c10.13-.5,20.97.47,32.32,2.84-9.85,6.1-19.7,10.72-29.39,13.72-8.72-2.69-17.32-4.07-25.66-4.01,7.86-2.81,15.46-7.04,22.73-12.55Z"/>
    <path class="st0" d="M564.23,506.58c-11.35,2.37-22.19,3.34-32.32,2.84-7.27-5.51-14.86-9.73-22.72-12.54,8.35.06,16.94-1.32,25.66-4.01,9.69,2.99,19.53,7.61,29.38,13.71Z"/>
    <path class="st0" d="M531.91,509.42c8.08,6.13,15.76,13.84,22.93,22.94-11.47-1.65-21.99-4.45-31.34-8.38-4.94-7.66-10.63-14.23-17.05-19.55,7.81,2.9,16.35,4.54,25.46,4.99Z"/>
    <path class="st0" d="M523.5,523.98c5.51,8.52,10.08,18.39,13.71,29.4-10.22-5.48-19.15-11.71-26.59-18.61-2.02-8.89-5.13-17.02-9.35-24.21,6.36,5.41,13.82,9.87,22.23,13.42Z"/>
    <path class="st0" d="M510.62,534.77c2.26,9.9,3.19,20.75,2.83,32.34-7.72-8.64-13.98-17.55-18.61-26.57,1.13-9.05.99-17.74-.5-25.95,4.12,7.24,9.6,13.99,16.28,20.18Z"/>
    <path class="st0" d="M494.84,540.54c-1.27,10.06-4.11,20.57-8.41,31.33-4.3-10.76-7.14-21.27-8.41-31.33,4.17-8.12,7.02-16.34,8.41-24.56,1.39,8.22,4.24,16.44,8.41,24.56Z"/>
    <path class="st0" d="M478.52,514.59c-1.49,8.21-1.63,16.9-.5,25.95-4.63,9.02-10.89,17.93-18.61,26.57-.36-11.59.57-22.44,2.83-32.34,6.68-6.19,12.16-12.94,16.28-20.18Z"/>
    <path class="st0" d="M471.59,510.56c-4.22,7.19-7.33,15.32-9.35,24.21-7.44,6.9-16.37,13.13-26.59,18.61,3.63-11.01,8.2-20.88,13.71-29.4,8.41-3.55,15.87-8.01,22.23-13.42Z"/>
    <path class="st0" d="M466.41,504.43c-6.42,5.32-12.11,11.89-17.05,19.55-9.35,3.93-19.87,6.73-31.34,8.38,7.17-9.1,14.85-16.81,22.93-22.94,9.11-.45,17.65-2.09,25.46-4.99Z"/>
    <path class="st0" d="M438.01,492.87c8.72,2.69,17.31,4.07,25.66,4.01-7.86,2.81-15.45,7.03-22.72,12.54-10.13.5-20.97-.47-32.32-2.84,9.85-6.1,19.69-10.72,29.38-13.71Z"/>
    <path class="st0" d="M463.67,488.86c-8.34-.06-16.94,1.32-25.66,4.01-9.69-3-19.54-7.62-29.39-13.72,11.35-2.37,22.19-3.34,32.32-2.84,7.27,5.51,14.87,9.74,22.73,12.55Z"/>
    <path class="st0" d="M449.35,461.75c4.94,7.67,10.64,14.24,17.06,19.56-7.82-2.9-16.36-4.55-25.47-5-8.08-6.13-15.76-13.84-22.92-22.94,11.46,1.65,21.98,4.44,31.33,8.38Z"/>
    <path class="st3" d="M486.43,413.87c-4.3,10.76-7.14,21.27-8.41,31.33-4.63-9.03-10.89-17.93-18.61-26.58.41-13.45,2.56-27.89,6.35-42.99,8.73,12.9,15.68,25.74,20.67,38.24Z"/>
    <path class="st3" d="M507.1,375.63c3.79,15.1,5.94,29.54,6.35,42.99-7.72,8.65-13.98,17.55-18.61,26.58-1.27-10.06-4.11-20.57-8.41-31.33,4.99-12.5,11.94-25.34,20.67-38.24Z"/>
    <path class="st3" d="M545.95,389.78c-1.6,15.49-4.53,29.8-8.74,42.58-10.22,5.48-19.15,11.7-26.59,18.6,2.27-9.9,3.19-20.75,2.83-32.34,8.96-10.03,19.88-19.72,32.5-28.84Z"/>
    <path class="st3" d="M577.6,416.36c-6.79,14.01-14.43,26.45-22.76,37.01-11.46,1.65-21.98,4.44-31.33,8.38,5.5-8.52,10.07-18.39,13.7-29.39,11.85-6.37,25.42-11.74,40.39-16Z"/>
    <path class="st3" d="M554.84,453.37c13.32-1.93,27.91-2.33,43.44-1.21-11.18,10.83-22.61,19.91-34.04,26.99-11.35-2.37-22.19-3.34-32.32-2.84,8.08-6.13,15.76-13.84,22.92-22.94Z"/>
    <path class="st3" d="M564.24,479.15c13.16,2.74,27.01,7.35,41.22,13.71-14.21,6.37-28.06,10.98-41.23,13.72-9.85-6.1-19.69-10.72-29.38-13.71,9.69-3,19.54-7.62,29.39-13.72Z"/>
    <path class="st3" d="M598.28,533.57c-15.53,1.12-30.12.73-43.44-1.21-7.17-9.1-14.85-16.81-22.93-22.94,10.13.5,20.97-.47,32.32-2.84,11.44,7.08,22.87,16.16,34.05,26.99Z"/>
    <path class="st3" d="M554.84,532.36c8.32,10.56,15.97,23,22.76,37.01-14.97-4.26-28.54-9.63-40.39-15.99-3.63-11.01-8.2-20.88-13.71-29.4,9.35,3.93,19.87,6.73,31.34,8.38Z"/>
    <path class="st3" d="M537.21,553.38c4.21,12.77,7.14,27.08,8.74,42.57-12.62-9.12-23.54-18.81-32.5-28.84.36-11.59-.57-22.44-2.83-32.34,7.44,6.9,16.37,13.13,26.59,18.61Z"/>
    <path class="st3" d="M513.45,567.11c-.41,13.45-2.55,27.89-6.35,42.99-8.73-12.9-15.68-25.74-20.67-38.23,4.3-10.76,7.14-21.27,8.41-31.33,4.63,9.02,10.89,17.93,18.61,26.57Z"/>
    <path class="st3" d="M478.02,540.54c1.27,10.06,4.11,20.57,8.41,31.33-4.99,12.49-11.94,25.33-20.67,38.23-3.8-15.1-5.94-29.54-6.35-42.99,7.72-8.64,13.98-17.55,18.61-26.57Z"/>
    <path class="st3" d="M462.24,534.77c-2.26,9.9-3.19,20.75-2.83,32.34-8.96,10.03-19.88,19.72-32.5,28.84,1.6-15.49,4.53-29.8,8.74-42.57,10.22-5.48,19.15-11.71,26.59-18.61Z"/>
    <path class="st3" d="M449.36,523.98c-5.51,8.52-10.08,18.39-13.71,29.4-11.85,6.36-25.42,11.73-40.39,15.99,6.79-14.01,14.44-26.45,22.76-37.01,11.47-1.65,21.99-4.45,31.34-8.38Z"/>
    <path class="st3" d="M408.63,506.58c11.35,2.37,22.19,3.34,32.32,2.84-8.08,6.13-15.76,13.84-22.93,22.94-13.32,1.94-27.91,2.33-43.44,1.21,11.18-10.83,22.61-19.91,34.05-26.99Z"/>
    <path class="st3" d="M408.62,479.15c9.85,6.1,19.7,10.72,29.39,13.72-9.69,2.99-19.53,7.61-29.38,13.71-13.17-2.74-27.02-7.35-41.23-13.72,14.21-6.36,28.06-10.97,41.22-13.71Z"/>
    <path class="st3" d="M440.94,476.31c-10.13-.5-20.97.47-32.32,2.84-11.43-7.08-22.86-16.16-34.04-26.99,15.53-1.12,30.12-.72,43.44,1.21,7.16,9.1,14.84,16.81,22.92,22.94Z"/>
    <path class="st3" d="M435.65,432.36c3.63,11,8.2,20.87,13.7,29.39-9.35-3.94-19.87-6.73-31.33-8.38-8.33-10.56-15.97-23-22.76-37.01,14.97,4.26,28.54,9.63,40.39,16Z"/>
    <path class="st3" d="M459.41,418.62c-.36,11.59.56,22.44,2.83,32.34-7.44-6.9-16.37-13.12-26.59-18.6-4.21-12.78-7.14-27.09-8.74-42.58,12.62,9.12,23.54,18.81,32.5,28.84Z"/>
    <path class="st2" d="M435.65,432.36c-11.85-6.37-25.42-11.74-40.39-16-8.18-16.82-15.13-35.9-20.61-56.71,19.53,9,37.11,19.16,52.26,30.13,1.6,15.49,4.53,29.8,8.74,42.58Z"/>
    <path class="st2" d="M465.76,375.63c-3.79,15.1-5.94,29.54-6.35,42.99-8.96-10.03-19.88-19.72-32.5-28.84-1.92-18.6-1.93-38.9.04-60.32,15.28,15.13,28.32,30.69,38.81,46.17Z"/>
    <path class="st2" d="M486.43,318.96c9.18,19.46,16.12,38.54,20.67,56.67-8.73,12.9-15.68,25.74-20.67,38.24-4.99-12.5-11.94-25.34-20.67-38.24,4.55-18.13,11.49-37.21,20.67-56.67Z"/>
    <path class="st2" d="M545.91,329.46c1.97,21.42,1.96,41.72.04,60.32-12.62,9.12-23.54,18.81-32.5,28.84-.41-13.45-2.56-27.89-6.35-42.99,10.49-15.48,23.53-31.04,38.81-46.17Z"/>
    <path class="st2" d="M598.21,359.65c-5.48,20.81-12.43,39.89-20.61,56.71-14.97,4.26-28.54,9.63-40.39,16,4.21-12.78,7.14-27.09,8.74-42.58,15.15-10.97,32.73-21.13,52.26-30.13Z"/>
    <path class="st2" d="M637.03,405.92c-12.26,17.68-25.32,33.23-38.75,46.24-15.53-1.12-30.12-.72-43.44,1.21,8.33-10.56,15.97-23,22.76-37.01,17.98-5.12,37.98-8.66,59.43-10.44Z"/>
    <path class="st2" d="M657.68,462.67c-17.56,12.42-35.15,22.57-52.22,30.19-14.21-6.36-28.06-10.97-41.22-13.71,11.43-7.08,22.86-16.16,34.04-26.99,18.65,1.33,38.65,4.84,59.4,10.51Z"/>
    <path class="st2" d="M605.46,492.86c17.06,7.63,34.65,17.77,52.22,30.2-20.75,5.67-40.75,9.18-59.4,10.51-11.18-10.83-22.61-19.91-34.05-26.99,13.17-2.74,27.02-7.35,41.23-13.72Z"/>
    <path class="st2" d="M598.28,533.57c13.43,13.01,26.49,28.56,38.74,46.24-21.44-1.78-41.44-5.31-59.42-10.44-6.79-14.01-14.44-26.45-22.76-37.01,13.32,1.94,27.91,2.33,43.44,1.21Z"/>
    <path class="st2" d="M577.6,569.37c8.17,16.82,15.13,35.9,20.61,56.71-19.53-9-37.11-19.16-52.26-30.13-1.6-15.49-4.53-29.8-8.74-42.57,11.85,6.36,25.42,11.73,40.39,15.99Z"/>
    <path class="st2" d="M545.95,595.95c1.92,18.6,1.93,38.9-.04,60.33-15.28-15.14-28.32-30.7-38.81-46.18,3.8-15.1,5.94-29.54,6.35-42.99,8.96,10.03,19.88,19.72,32.5,28.84Z"/>
    <path class="st2" d="M507.1,610.1c-4.55,18.13-11.49,37.21-20.67,56.67-9.18-19.46-16.12-38.54-20.67-56.67,8.73-12.9,15.68-25.74,20.67-38.23,4.99,12.49,11.94,25.33,20.67,38.23Z"/>
    <path class="st2" d="M459.41,567.11c.41,13.45,2.55,27.89,6.35,42.99-10.49,15.48-23.53,31.04-38.81,46.18-1.97-21.43-1.96-41.73-.04-60.33,12.62-9.12,23.54-18.81,32.5-28.84Z"/>
    <path class="st2" d="M395.26,569.37c14.97-4.26,28.54-9.63,40.39-15.99-4.21,12.77-7.14,27.08-8.74,42.57-15.15,10.97-32.73,21.13-52.26,30.13,5.48-20.81,12.44-39.89,20.61-56.71Z"/>
    <path class="st2" d="M418.02,532.36c-8.32,10.56-15.97,23-22.76,37.01-17.98,5.13-37.98,8.66-59.42,10.44,12.25-17.68,25.31-33.23,38.74-46.24,15.53,1.12,30.12.73,43.44-1.21Z"/>
    <path class="st2" d="M408.63,506.58c-11.44,7.08-22.87,16.16-34.05,26.99-18.65-1.33-38.65-4.84-59.4-10.51,17.57-12.43,35.16-22.57,52.22-30.2,14.21,6.37,28.06,10.98,41.23,13.72Z"/>
    <path class="st2" d="M374.58,452.16c11.18,10.83,22.61,19.91,34.04,26.99-13.16,2.74-27.01,7.35-41.22,13.71-17.07-7.62-34.66-17.77-52.22-30.19,20.75-5.67,40.75-9.18,59.4-10.51Z"/>
    <path class="st2" d="M395.26,416.36c6.79,14.01,14.43,26.45,22.76,37.01-13.32-1.93-27.91-2.33-43.44-1.21-13.43-13.01-26.49-28.56-38.75-46.24,21.45,1.78,41.45,5.32,59.43,10.44Z"/>
    <path class="st4" d="M968.36,407.89c5.05,28.66-9.3,58.39-37.5,84.98-24.89-23.47-60.57-44.49-103.21-60.17,34.7-29.31,61.04-61.27,76.4-91.83,35.6,15.33,59.26,38.36,64.31,67.02Z"/>
    <path class="st4" d="M930.86,492.87c28.2,26.59,42.55,56.32,37.5,84.97-5.05,28.66-28.71,51.69-64.31,67.02-15.36-30.56-41.7-62.52-76.4-91.83,42.64-15.67,78.32-36.69,103.21-60.16Z"/>
    <path class="st4" d="M910.23,248.19c14.55,25.2,11.23,58.05-6.18,92.68-31.41-13.54-72.13-21.1-117.56-21.24,22.59-39.42,36.41-78.46,40.38-112.43,38.7,2.24,68.81,15.78,83.36,40.99Z"/>
    <path class="st4" d="M904.05,644.86c17.41,34.64,20.73,67.49,6.18,92.69-14.55,25.2-44.66,38.75-83.36,40.98-3.97-33.97-17.79-73.01-40.38-112.43,45.43-.14,86.15-7.69,117.56-21.24Z"/>
    <path class="st1" d="M827.65,432.7c42.64,15.68,78.32,36.7,103.21,60.17-24.89,23.47-60.57,44.49-103.21,60.16-19.66-16.6-42-32.36-66.55-46.54-8.42-4.86-16.87-9.41-25.32-13.62,8.45-4.22,16.9-8.77,25.32-13.63,24.55-14.18,46.89-29.93,66.55-46.54Z"/>
    <path class="st1" d="M904.05,340.87c-15.36,30.56-41.7,62.52-76.4,91.83-24.15-8.88-50.54-16.05-78.46-20.97-9.58-1.69-19.07-3.07-28.45-4.14,6.49-6.86,12.88-14.02,19.13-21.47,18.22-21.72,33.83-44.17,46.62-66.49,45.43.14,86.15,7.7,117.56,21.24Z"/>
    <path class="st1" d="M827.65,553.03c34.7,29.31,61.04,61.27,76.4,91.83-31.41,13.55-72.13,21.1-117.56,21.24-12.79-22.32-28.4-44.77-46.62-66.49-6.25-7.45-12.64-14.61-19.13-21.47,9.38-1.07,18.87-2.45,28.45-4.14,27.92-4.92,54.31-12.09,78.46-20.97Z"/>
    <path class="st4" d="M800.99,117.99c22.29,18.71,30.4,50.71,25.88,89.21-34.15-1.99-74.98,4.84-117.72,20.24,7.74-44.77,7.37-86.17-.5-119.46,37.13-11.13,70.05-8.69,92.34,10.01Z"/>
    <path class="st4" d="M826.87,778.53c4.52,38.5-3.59,70.5-25.88,89.21-22.29,18.7-55.21,21.14-92.34,10.01,7.88-33.29,8.24-74.7.5-119.46,42.73,15.4,83.57,22.23,117.72,20.24Z"/>
    <path class="st1" d="M826.87,778.53c-34.15,1.99-74.99-4.84-117.72-20.24-4.38-25.35-11.37-51.78-21.07-78.43-3.33-9.14-6.88-18.05-10.64-26.72,9.18,2.2,18.58,4.15,28.16,5.84,27.92,4.92,55.16,7.21,80.89,7.12,22.59,39.42,36.41,78.46,40.38,112.43Z"/>
    <path class="st1" d="M709.15,227.44c42.74-15.4,83.57-22.23,117.72-20.24-3.97,33.97-17.79,73.01-40.38,112.43-25.73-.09-52.97,2.2-80.89,7.12-9.58,1.69-18.98,3.64-28.16,5.83,3.76-8.66,7.32-17.57,10.64-26.7,9.7-26.65,16.69-53.09,21.07-78.44Z"/>
    <path class="st6" d="M705.6,326.75c27.92-4.92,55.16-7.21,80.89-7.12-12.79,22.32-28.4,44.77-46.62,66.49-6.25,7.45-12.64,14.61-19.13,21.47-29.36-3.39-57.61-3.84-83.71-1.67,14.93-21.53,28.67-46.22,40.41-73.34,9.18-2.19,18.58-4.14,28.16-5.83Z"/>
    <path class="st6" d="M786.49,666.1c-25.73.09-52.97-2.2-80.89-7.12-9.58-1.69-18.98-3.64-28.16-5.84-11.75-27.12-25.49-51.81-40.42-73.33,26.1,2.17,54.35,1.72,83.72-1.67,6.49,6.86,12.88,14.02,19.13,21.47,18.22,21.72,33.83,44.17,46.62,66.49Z"/>
    <path class="st6" d="M827.65,432.7c-19.66,16.61-42,32.36-66.55,46.54-8.42,4.86-16.87,9.41-25.32,13.63-26.44-13.23-52.83-23.31-78.1-30.2,21.39-15.12,42.74-33.62,63.06-55.08,9.38,1.07,18.87,2.45,28.45,4.14,27.92,4.92,54.31,12.09,78.46,20.97Z"/>
    <path class="st6" d="M761.1,506.49c24.55,14.18,46.89,29.94,66.55,46.54-24.15,8.88-50.54,16.05-78.46,20.97-9.58,1.69-19.07,3.07-28.45,4.14-20.32-21.46-41.67-39.96-63.06-55.08,25.27-6.89,51.66-16.97,78.1-30.19,8.45,4.21,16.9,8.76,25.32,13.62Z"/>
    <path class="st1" d="M708.65,107.98c7.87,33.29,8.24,74.69.5,119.46-24.21,8.72-49.03,20.19-73.59,34.37-8.42,4.86-16.58,9.91-24.46,15.12.57-9.43.86-19.02.86-28.74,0-28.36-2.48-55.59-7.03-80.92,34.9-29.08,70.95-49.47,103.72-59.29Z"/>
    <path class="st1" d="M709.15,758.29c7.74,44.76,7.38,86.17-.5,119.46-32.77-9.82-68.82-30.21-103.72-59.29,4.56-25.33,7.03-52.55,7.03-80.91,0-9.72-.29-19.31-.86-28.74,7.88,5.2,16.04,10.25,24.46,15.11,24.56,14.18,49.38,25.65,73.59,34.37Z"/>
    <path class="st6" d="M709.15,227.44c-4.38,25.35-11.37,51.79-21.07,78.44-3.32,9.13-6.88,18.04-10.64,26.7-28.74,6.87-55.44,16.11-79.23,27.07,6.66-25.33,11.12-53.22,12.89-82.72,7.88-5.21,16.04-10.26,24.46-15.12,24.56-14.18,49.38-25.65,73.59-34.37Z"/>
    <path class="st6" d="M688.08,679.86c9.7,26.65,16.69,53.08,21.07,78.43-24.21-8.72-49.03-20.19-73.59-34.37-8.42-4.86-16.58-9.91-24.46-15.11-1.77-29.5-6.23-57.4-12.89-82.73,23.79,10.96,50.49,20.2,79.23,27.06,3.76,8.67,7.31,17.58,10.64,26.72Z"/>
    <path class="st7" d="M637.03,405.92c26.1-2.17,54.35-1.72,83.71,1.67-20.32,21.46-41.67,39.96-63.06,55.08-20.75-5.67-40.75-9.18-59.4-10.51,13.43-13.01,26.49-28.56,38.75-46.24Z"/>
    <path class="st7" d="M720.74,578.14c-29.37,3.39-57.62,3.84-83.72,1.67-12.25-17.68-25.31-33.23-38.74-46.24,18.65-1.33,38.65-4.84,59.4-10.51,21.39,15.12,42.74,33.62,63.06,55.08Z"/>
    <path class="st7" d="M657.68,462.67c25.27,6.89,51.66,16.97,78.1,30.2-26.44,13.22-52.83,23.3-78.1,30.19-17.57-12.43-35.16-22.57-52.22-30.2,17.07-7.62,34.66-17.77,52.22-30.19Z"/>
    <path class="st4" d="M653.8,33.02c27.34,9.95,45.92,37.25,54.85,74.96-32.77,9.82-68.82,30.21-103.72,59.29-8.03-44.72-22.54-83.51-41.34-112.09,31.09-23.14,62.86-32.12,90.21-22.16Z"/>
    <path class="st4" d="M708.65,877.75c-8.93,37.72-27.51,65.02-54.85,74.97-27.35,9.95-59.12.98-90.2-22.18,18.79-28.58,33.3-67.37,41.33-112.08,34.9,29.08,70.95,49.47,103.72,59.29Z"/>
    <path class="st7" d="M637.02,579.81c14.93,21.52,28.67,46.21,40.42,73.33-28.74-6.86-55.44-16.1-79.23-27.06-5.48-20.81-12.44-39.89-20.61-56.71,17.98,5.13,37.98,8.66,59.42,10.44Z"/>
    <path class="st7" d="M677.44,332.58c-11.74,27.12-25.48,51.81-40.41,73.34-21.45,1.78-41.45,5.32-59.43,10.44,8.18-16.82,15.13-35.9,20.61-56.71,23.79-10.96,50.49-20.2,79.23-27.07Z"/>
    <path class="st6" d="M611.96,248.19c0,9.72-.29,19.31-.86,28.74-24.66,16.28-46.58,34.09-65.19,52.53-2.4-26.09-7.75-53.83-16.18-82.16,5.62-7.58,11.56-15.11,17.81-22.56,18.23-21.72,37.63-40.99,57.39-57.47,4.55,25.33,7.03,52.56,7.03,80.92Z"/>
    <path class="st6" d="M611.1,708.81c.57,9.43.86,19.02.86,28.74,0,28.36-2.47,55.58-7.03,80.91-19.76-16.48-39.16-35.75-57.39-57.47-6.25-7.45-12.19-14.98-17.81-22.56,8.43-28.33,13.78-56.07,16.18-82.15,18.61,18.44,40.53,36.25,65.19,52.53Z"/>
    <path class="st7" d="M611.1,276.93c-1.77,29.5-6.23,57.39-12.89,82.72-19.53,9-37.11,19.16-52.26,30.13,1.92-18.6,1.93-38.9-.04-60.32,18.61-18.44,40.53-36.25,65.19-52.53Z"/>
    <path class="st7" d="M598.21,626.08c6.66,25.33,11.12,53.23,12.89,82.73-24.66-16.28-46.58-34.09-65.19-52.53,1.97-21.43,1.96-41.73.04-60.33,15.15,10.97,32.73,21.13,52.26,30.13Z"/>
    <path class="st1" d="M563.59,55.18c18.8,28.58,33.31,67.37,41.34,112.09-19.76,16.48-39.16,35.75-57.39,57.47-6.25,7.45-12.19,14.98-17.81,22.56-2.69-9.05-5.7-18.16-9.02-27.29-9.7-26.65-21.34-51.39-34.28-73.64,22.84-39.26,49.73-70.74,77.16-91.19Z"/>
    <path class="st1" d="M604.93,818.46c-8.03,44.71-22.54,83.5-41.33,112.08-27.44-20.44-54.33-51.92-77.17-91.18,12.94-22.24,24.58-46.98,34.28-73.63,3.33-9.14,6.33-18.25,9.02-27.3,5.62,7.58,11.56,15.11,17.81,22.56,18.23,21.72,37.63,40.99,57.39,57.47Z"/>
    <path class="st4" d="M486.43,839.36c22.84,39.26,49.73,70.74,77.17,91.18-21.28,32.39-48.07,51.69-77.17,51.69s-55.89-19.3-77.17-51.69c27.44-20.44,54.33-51.92,77.17-91.18Z"/>
    <path class="st4" d="M563.59,55.18c-27.43,20.45-54.32,51.93-77.16,91.19-22.84-39.26-49.73-70.74-77.16-91.19,21.28-32.38,48.06-51.68,77.16-51.68s55.88,19.3,77.16,51.68Z"/>
    <path class="st7" d="M529.73,247.3c8.43,28.33,13.78,56.07,16.18,82.16-15.28,15.13-28.32,30.69-38.81,46.17-4.55-18.13-11.49-37.21-20.67-56.67,11.18-23.69,25.7-47.92,43.3-71.66Z"/>
    <path class="st7" d="M545.91,656.28c-2.4,26.08-7.75,53.82-16.18,82.15-17.6-23.74-32.12-47.97-43.3-71.66,9.18-19.46,16.12-38.54,20.67-56.67,10.49,15.48,23.53,31.04,38.81,46.18Z"/>
    <path class="st6" d="M520.71,220.01c3.32,9.13,6.33,18.24,9.02,27.29-17.6,23.74-32.12,47.97-43.3,71.66-11.18-23.69-25.7-47.92-43.3-71.66,2.69-9.05,5.7-18.16,9.02-27.29,9.7-26.65,21.34-51.39,34.28-73.64,12.94,22.25,24.58,46.99,34.28,73.64Z"/>
    <path class="st6" d="M529.73,738.43c-2.69,9.05-5.69,18.16-9.02,27.3-9.7,26.65-21.34,51.39-34.28,73.63-12.94-22.24-24.58-46.98-34.28-73.63-3.33-9.14-6.33-18.25-9.02-27.3,17.6-23.74,32.12-47.97,43.3-71.66,11.18,23.69,25.7,47.92,43.3,71.66Z"/>
    <path class="st7" d="M486.43,318.96c-9.18,19.46-16.12,38.54-20.67,56.67-10.49-15.48-23.53-31.04-38.81-46.17,2.4-26.09,7.75-53.83,16.18-82.16,17.6,23.74,32.12,47.97,43.3,71.66Z"/>
    <path class="st7" d="M465.76,610.1c4.55,18.13,11.49,37.21,20.67,56.67-11.18,23.69-25.7,47.92-43.3,71.66-8.43-28.33-13.78-56.07-16.18-82.15,15.28-15.14,28.32-30.7,38.81-46.18Z"/>
    <path class="st1" d="M486.43,146.37c-12.94,22.25-24.58,46.99-34.28,73.64-3.32,9.13-6.33,18.24-9.02,27.29-5.62-7.58-11.56-15.11-17.81-22.56-18.23-21.72-37.63-40.99-57.39-57.47,8.03-44.72,22.54-83.51,41.34-112.09,27.43,20.45,54.32,51.93,77.16,91.19Z"/>
    <path class="st1" d="M452.15,765.73c9.7,26.65,21.34,51.39,34.28,73.63-22.84,39.26-49.73,70.74-77.17,91.18-18.79-28.58-33.3-67.37-41.33-112.08,19.76-16.48,39.16-35.75,57.39-57.47,6.25-7.45,12.19-14.98,17.81-22.56,2.69,9.05,5.69,18.16,9.02,27.3Z"/>
    <path class="st6" d="M425.32,224.74c6.25,7.45,12.19,14.98,17.81,22.56-8.43,28.33-13.78,56.07-16.18,82.16-18.61-18.44-40.53-36.25-65.19-52.53-.57-9.43-.86-19.02-.86-28.74,0-28.36,2.48-55.59,7.03-80.92,19.76,16.48,39.16,35.75,57.39,57.47Z"/>
    <path class="st6" d="M443.13,738.43c-5.62,7.58-11.56,15.11-17.81,22.56-18.23,21.72-37.63,40.99-57.39,57.47-4.56-25.33-7.03-52.55-7.03-80.91,0-9.72.29-19.31.86-28.74,24.66-16.28,46.58-34.09,65.19-52.53,2.4,26.08,7.75,53.82,16.18,82.15Z"/>
    <path class="st7" d="M426.91,389.78c-15.15-10.97-32.73-21.13-52.26-30.13-6.66-25.33-11.12-53.22-12.89-82.72,24.66,16.28,46.58,34.09,65.19,52.53-1.97,21.42-1.96,41.72-.04,60.32Z"/>
    <path class="st7" d="M374.65,626.08c19.53-9,37.11-19.16,52.26-30.13-1.92,18.6-1.93,38.9.04,60.33-18.61,18.44-40.53,36.25-65.19,52.53,1.77-29.5,6.23-57.4,12.89-82.73Z"/>
    <path class="st4" d="M409.27,55.18c-18.8,28.58-33.31,67.37-41.34,112.09-34.9-29.08-70.95-49.47-103.72-59.29,8.93-37.71,27.51-65.01,54.85-74.96,27.35-9.96,59.12-.98,90.21,22.16Z"/>
    <path class="st4" d="M367.93,818.46c8.03,44.71,22.54,83.5,41.33,112.08-31.08,23.16-62.85,32.13-90.2,22.18-27.34-9.95-45.92-37.25-54.85-74.97,32.77-9.82,68.82-30.21,103.72-59.29Z"/>
    <path class="st7" d="M374.65,359.65c5.48,20.81,12.43,39.89,20.61,56.71-17.98-5.12-37.98-8.66-59.43-10.44-14.93-21.53-28.67-46.22-40.41-73.34,28.74,6.87,55.44,16.11,79.23,27.07Z"/>
    <path class="st7" d="M395.26,569.37c-8.17,16.82-15.13,35.9-20.61,56.71-23.79,10.96-50.49,20.2-79.23,27.06,11.75-27.12,25.49-51.81,40.42-73.33,21.44-1.78,41.44-5.31,59.42-10.44Z"/>
    <path class="st7" d="M335.83,405.92c12.26,17.68,25.32,33.23,38.75,46.24-18.65,1.33-38.65,4.84-59.4,10.51-21.39-15.12-42.74-33.62-63.06-55.08,29.36-3.39,57.61-3.84,83.71-1.67Z"/>
    <path class="st7" d="M374.58,533.57c-13.43,13.01-26.49,28.56-38.74,46.24-26.1,2.17-54.35,1.72-83.72-1.67,20.32-21.46,41.67-39.96,63.06-55.08,20.75,5.67,40.75,9.18,59.4,10.51Z"/>
    <path class="st6" d="M361.76,276.93c1.77,29.5,6.23,57.39,12.89,82.72-23.79-10.96-50.49-20.2-79.23-27.07-3.76-8.66-7.32-17.57-10.64-26.7-9.7-26.65-16.69-53.09-21.07-78.44,24.21,8.72,49.03,20.19,73.59,34.37,8.42,4.86,16.58,9.91,24.46,15.12Z"/>
    <path class="st6" d="M374.65,626.08c-6.66,25.33-11.12,53.23-12.89,82.73-7.88,5.2-16.04,10.25-24.46,15.11-24.56,14.18-49.38,25.65-73.59,34.37,4.38-25.35,11.37-51.78,21.07-78.43,3.33-9.14,6.88-18.05,10.64-26.72,28.74-6.86,55.44-16.1,79.23-27.06Z"/>
    <path class="st1" d="M367.93,167.27c-4.55,25.33-7.03,52.56-7.03,80.92,0,9.72.29,19.31.86,28.74-7.88-5.21-16.04-10.26-24.46-15.12-24.56-14.18-49.38-25.65-73.59-34.37-7.74-44.77-7.37-86.17.5-119.46,32.77,9.82,68.82,30.21,103.72,59.29Z"/>
    <path class="st1" d="M361.76,708.81c-.57,9.43-.86,19.02-.86,28.74,0,28.36,2.47,55.58,7.03,80.91-34.9,29.08-70.95,49.47-103.72,59.29-7.88-33.29-8.24-74.7-.5-119.46,24.21-8.72,49.03-20.19,73.59-34.37,8.42-4.86,16.58-9.91,24.46-15.11Z"/>
    <path class="st7" d="M315.18,462.67c17.56,12.42,35.15,22.57,52.22,30.19-17.06,7.63-34.65,17.77-52.22,30.2-25.27-6.89-51.66-16.97-78.1-30.19,26.44-13.23,52.83-23.31,78.1-30.2Z"/>
    <path class="st6" d="M335.83,405.92c-26.1-2.17-54.35-1.72-83.71,1.67-6.49-6.86-12.88-14.02-19.13-21.47-18.22-21.72-33.83-44.17-46.62-66.49,25.73-.09,52.97,2.2,80.89,7.12,9.58,1.69,18.98,3.64,28.16,5.83,11.74,27.12,25.48,51.81,40.41,73.34Z"/>
    <path class="st6" d="M252.12,578.14c29.37,3.39,57.62,3.84,83.72,1.67-14.93,21.52-28.67,46.21-40.42,73.33-9.18,2.2-18.58,4.15-28.16,5.84-27.92,4.92-55.16,7.21-80.89,7.12,12.79-22.32,28.4-44.77,46.62-66.49,6.25-7.45,12.64-14.61,19.13-21.47Z"/>
    <path class="st1" d="M284.78,305.88c3.32,9.13,6.88,18.04,10.64,26.7-9.18-2.19-18.58-4.14-28.16-5.83-27.92-4.92-55.16-7.21-80.89-7.12-22.59-39.42-36.41-78.46-40.38-112.43,34.15-1.99,74.98,4.84,117.72,20.24,4.38,25.35,11.37,51.79,21.07,78.44Z"/>
    <path class="st1" d="M295.42,653.14c-3.76,8.67-7.31,17.58-10.64,26.72-9.7,26.65-16.69,53.08-21.07,78.43-42.73,15.4-83.57,22.23-117.72,20.24,3.97-33.97,17.79-73.01,40.38-112.43,25.73.09,52.97-2.2,80.89-7.12,9.58-1.69,18.98-3.64,28.16-5.84Z"/>
    <path class="st4" d="M264.21,107.98c-7.87,33.29-8.24,74.69-.5,119.46-42.74-15.4-83.57-22.23-117.72-20.24-4.52-38.5,3.59-70.5,25.88-89.21,22.29-18.7,55.21-21.14,92.34-10.01Z"/>
    <path class="st4" d="M263.71,758.29c-7.74,44.76-7.38,86.17.5,119.46-37.13,11.13-70.05,8.69-92.34-10.01-22.29-18.71-30.4-50.71-25.88-89.21,34.15,1.99,74.99-4.84,117.72-20.24Z"/>
    <path class="st6" d="M252.12,407.59c20.32,21.46,41.67,39.96,63.06,55.08-25.27,6.89-51.66,16.97-78.1,30.2-8.45-4.22-16.9-8.77-25.32-13.63-24.55-14.18-46.89-29.93-66.55-46.54,24.15-8.88,50.54-16.05,78.46-20.97,9.58-1.69,19.07-3.07,28.45-4.14Z"/>
    <path class="st6" d="M315.18,523.06c-21.39,15.12-42.74,33.62-63.06,55.08-9.38-1.07-18.87-2.45-28.45-4.14-27.92-4.92-54.31-12.09-78.46-20.97,19.66-16.6,42-32.36,66.55-46.54,8.42-4.86,16.87-9.41,25.32-13.62,26.44,13.22,52.83,23.3,78.1,30.19Z"/>
    <path class="st1" d="M232.99,386.12c6.25,7.45,12.64,14.61,19.13,21.47-9.38,1.07-18.87,2.45-28.45,4.14-27.92,4.92-54.31,12.09-78.46,20.97-34.7-29.31-61.04-61.27-76.4-91.83,31.41-13.54,72.13-21.1,117.56-21.24,12.79,22.32,28.4,44.77,46.62,66.49Z"/>
    <path class="st1" d="M252.12,578.14c-6.49,6.86-12.88,14.02-19.13,21.47-18.22,21.72-33.83,44.17-46.62,66.49-45.43-.14-86.15-7.69-117.56-21.24,15.36-30.56,41.7-62.52,76.4-91.83,24.15,8.88,50.54,16.05,78.46,20.97,9.58,1.69,19.07,3.07,28.45,4.14Z"/>
    <path class="st1" d="M211.76,479.24c8.42,4.86,16.87,9.41,25.32,13.63-8.45,4.21-16.9,8.76-25.32,13.62-24.55,14.18-46.89,29.94-66.55,46.54-42.64-15.67-78.32-36.69-103.21-60.16,24.89-23.47,60.57-44.49,103.21-60.17,19.66,16.61,42,32.36,66.55,46.54Z"/>
    <path class="st4" d="M145.99,207.2c3.97,33.97,17.79,73.01,40.38,112.43-45.43.14-86.15,7.7-117.56,21.24-17.41-34.63-20.73-67.48-6.18-92.68,14.55-25.21,44.67-38.75,83.36-40.99Z"/>
    <path class="st4" d="M186.37,666.1c-22.59,39.42-36.41,78.46-40.38,112.43-38.7-2.23-68.81-15.78-83.36-40.98-14.55-25.2-11.23-58.05,6.18-92.69,31.41,13.55,72.13,21.1,117.56,21.24Z"/>
    <path class="st4" d="M68.81,340.87c15.36,30.56,41.7,62.52,76.4,91.83-42.64,15.68-78.32,36.7-103.21,60.17C13.8,466.28-.55,436.55,4.5,407.89c5.05-28.66,28.71-51.69,64.31-67.02Z"/>
    <path class="st4" d="M145.21,553.03c-34.7,29.31-61.04,61.27-76.4,91.83-35.6-15.33-59.26-38.36-64.31-67.02-5.05-28.65,9.3-58.38,37.5-84.97,24.89,23.47,60.57,44.49,103.21,60.16Z"/>
  </g>
  <g>
    <path class="st5" d="M604.93,167.27c4.55,25.33,7.03,52.56,7.03,80.92,0,9.72-.29,19.31-.86,28.74-1.77,29.5-6.23,57.39-12.89,82.72-5.48,20.81-12.43,39.89-20.61,56.71-6.79,14.01-14.43,26.45-22.76,37.01-7.16,9.1-14.84,16.81-22.92,22.94-7.27,5.51-14.87,9.74-22.73,12.55-7.38,2.63-14.99,4.01-22.76,4.01s-15.38-1.38-22.76-4.01c-7.86-2.81-15.46-7.04-22.73-12.55-8.08-6.13-15.76-13.84-22.92-22.94-8.33-10.56-15.97-23-22.76-37.01-8.18-16.82-15.13-35.9-20.61-56.71-6.66-25.33-11.12-53.22-12.89-82.72-.57-9.43-.86-19.02-.86-28.74,0-28.36,2.48-55.59,7.03-80.92,8.03-44.72,22.54-83.51,41.34-112.09,21.28-32.38,48.06-51.68,77.16-51.68s55.88,19.3,77.16,51.68c18.8,28.58,33.31,67.37,41.34,112.09Z"/>
    <path class="st5" d="M486.43,146.37c12.94,22.25,24.58,46.99,34.28,73.64,3.32,9.13,6.33,18.24,9.02,27.29,8.43,28.33,13.78,56.07,16.18,82.16,1.97,21.42,1.96,41.72.04,60.32-1.6,15.49-4.53,29.8-8.74,42.58-3.63,11-8.2,20.87-13.7,29.39-4.94,7.67-10.64,14.24-17.06,19.56-6.04,5-12.72,8.9-20.02,11.56s-14.92,3.97-22.76,4.01c-8.35.06-16.94-1.32-25.66-4.01-9.69-3-19.54-7.62-29.39-13.72-11.43-7.08-22.86-16.16-34.04-26.99-13.43-13.01-26.49-28.56-38.75-46.24-14.93-21.53-28.67-46.22-40.41-73.34-3.76-8.66-7.32-17.57-10.64-26.7-9.7-26.65-16.69-53.09-21.07-78.44-7.74-44.77-7.37-86.17.5-119.46,8.93-37.71,27.51-65.01,54.85-74.96,27.35-9.96,59.12-.98,90.21,22.16,27.43,20.45,54.32,51.93,77.16,91.19Z"/>
    <path class="st5" d="M367.93,167.27c19.76,16.48,39.16,35.75,57.39,57.47,6.25,7.45,12.19,14.98,17.81,22.56,17.6,23.74,32.12,47.97,43.3,71.66,9.18,19.46,16.12,38.54,20.67,56.67,3.79,15.1,5.94,29.54,6.35,42.99.36,11.59-.56,22.44-2.83,32.34-2.02,8.89-5.12,17.01-9.34,24.2-3.95,6.77-8.9,12.71-14.85,17.71s-12.67,8.83-20.02,11.56c-7.81,2.9-16.35,4.54-25.46,4.99-10.13.5-20.97-.47-32.32-2.84-13.17-2.74-27.02-7.35-41.23-13.72-17.07-7.62-34.66-17.77-52.22-30.19-21.39-15.12-42.74-33.62-63.06-55.08-6.49-6.86-12.88-14.02-19.13-21.47-18.22-21.72-33.83-44.17-46.62-66.49-22.59-39.42-36.41-78.46-40.38-112.43-4.52-38.5,3.59-70.5,25.88-89.21,22.29-18.7,55.21-21.14,92.34-10.01,32.77,9.82,68.82,30.21,103.72,59.29Z"/>
    <path class="st5" d="M263.71,227.44c24.21,8.72,49.03,20.19,73.59,34.37,8.42,4.86,16.58,9.91,24.46,15.12,24.66,16.28,46.58,34.09,65.19,52.53,15.28,15.13,28.32,30.69,38.81,46.17,8.73,12.9,15.68,25.74,20.67,38.24,4.3,10.76,7.14,21.27,8.41,31.33,1.13,9.05.99,17.75-.5,25.95-1.41,7.71-4.03,14.99-7.91,21.72s-8.87,12.62-14.84,17.69c-6.36,5.41-13.82,9.87-22.23,13.42-9.35,3.93-19.87,6.73-31.34,8.38-13.32,1.94-27.91,2.33-43.44,1.21-18.65-1.33-38.65-4.84-59.4-10.51-25.27-6.89-51.66-16.97-78.1-30.19-8.45-4.22-16.9-8.77-25.32-13.63-24.55-14.18-46.89-29.93-66.55-46.54-34.7-29.31-61.04-61.27-76.4-91.83-17.41-34.63-20.73-67.48-6.18-92.68,14.55-25.21,44.67-38.75,83.36-40.99,34.15-1.99,74.98,4.84,117.72,20.24Z"/>
    <path class="st5" d="M186.37,319.63c25.73-.09,52.97,2.2,80.89,7.12,9.58,1.69,18.98,3.64,28.16,5.83,28.74,6.87,55.44,16.11,79.23,27.07,19.53,9,37.11,19.16,52.26,30.13,12.62,9.12,23.54,18.81,32.5,28.84,7.72,8.65,13.98,17.55,18.61,26.58,4.17,8.12,7.02,16.34,8.41,24.56,1.32,7.73,1.35,15.46,0,23.11-1.35,7.66-4.03,14.91-7.91,21.72-4.12,7.24-9.6,13.99-16.28,20.18-7.44,6.9-16.37,13.13-26.59,18.61-11.85,6.36-25.42,11.73-40.39,15.99-17.98,5.13-37.98,8.66-59.42,10.44-26.1,2.17-54.35,1.72-83.72-1.67-9.38-1.07-18.87-2.45-28.45-4.14-27.92-4.92-54.31-12.09-78.46-20.97-42.64-15.67-78.32-36.69-103.21-60.16C13.8,466.28-.55,436.55,4.5,407.89c5.05-28.66,28.71-51.69,64.31-67.02,31.41-13.54,72.13-21.1,117.56-21.24Z"/>
    <path class="st5" d="M145.21,432.7c24.15-8.88,50.54-16.05,78.46-20.97,9.58-1.69,19.07-3.07,28.45-4.14,29.36-3.39,57.61-3.84,83.71-1.67,21.45,1.78,41.45,5.32,59.43,10.44,14.97,4.26,28.54,9.63,40.39,16,10.22,5.48,19.15,11.7,26.59,18.6,6.68,6.2,12.16,12.95,16.28,20.19,3.88,6.81,6.56,14.07,7.91,21.72s1.32,15.38,0,23.11c-1.39,8.22-4.24,16.44-8.41,24.56-4.63,9.02-10.89,17.93-18.61,26.57-8.96,10.03-19.88,19.72-32.5,28.84-15.15,10.97-32.73,21.13-52.26,30.13-23.79,10.96-50.49,20.2-79.23,27.06-9.18,2.2-18.58,4.15-28.16,5.84-27.92,4.92-55.16,7.21-80.89,7.12-45.43-.14-86.15-7.69-117.56-21.24-35.6-15.33-59.26-38.36-64.31-67.02-5.05-28.65,9.3-58.38,37.5-84.97,24.89-23.47,60.57-44.49,103.21-60.17Z"/>
    <path class="st5" d="M145.21,553.03c19.66-16.6,42-32.36,66.55-46.54,8.42-4.86,16.87-9.41,25.32-13.62,26.44-13.23,52.83-23.31,78.1-30.2,20.75-5.67,40.75-9.18,59.4-10.51,15.53-1.12,30.12-.72,43.44,1.21,11.46,1.65,21.98,4.44,31.33,8.38,8.41,3.54,15.87,8.01,22.23,13.41,5.97,5.08,10.97,10.98,14.85,17.71,3.89,6.73,6.5,14.01,7.91,21.72,1.49,8.21,1.63,16.9.5,25.95-1.27,10.06-4.11,20.57-8.41,31.33-4.99,12.49-11.94,25.33-20.67,38.23-10.49,15.48-23.53,31.04-38.81,46.18-18.61,18.44-40.53,36.25-65.19,52.53-7.88,5.2-16.04,10.25-24.46,15.11-24.56,14.18-49.38,25.65-73.59,34.37-42.73,15.4-83.57,22.23-117.72,20.24-38.7-2.23-68.81-15.78-83.36-40.98-14.55-25.2-11.23-58.05,6.18-92.69,15.36-30.56,41.7-62.52,76.4-91.83Z"/>
    <path class="st5" d="M186.37,666.1c12.79-22.32,28.4-44.77,46.62-66.49,6.25-7.45,12.64-14.61,19.13-21.47,20.32-21.46,41.67-39.96,63.06-55.08,17.57-12.43,35.16-22.57,52.22-30.2,14.21-6.36,28.06-10.97,41.22-13.71,11.35-2.37,22.19-3.34,32.32-2.84,9.11.45,17.65,2.1,25.47,5,7.35,2.73,14.07,6.56,20.02,11.56,5.95,4.99,10.89,10.93,14.84,17.69,4.22,7.19,7.33,15.32,9.35,24.21,2.26,9.9,3.19,20.75,2.83,32.34-.41,13.45-2.55,27.89-6.35,42.99-4.55,18.13-11.49,37.21-20.67,56.67-11.18,23.69-25.7,47.92-43.3,71.66-5.62,7.58-11.56,15.11-17.81,22.56-18.23,21.72-37.63,40.99-57.39,57.47-34.9,29.08-70.95,49.47-103.72,59.29-37.13,11.13-70.05,8.69-92.34-10.01-22.29-18.71-30.4-50.71-25.88-89.21,3.97-33.97,17.79-73.01,40.38-112.43Z"/>
    <path class="st5" d="M263.71,758.29c4.38-25.35,11.37-51.78,21.07-78.43,3.33-9.14,6.88-18.05,10.64-26.72,11.75-27.12,25.49-51.81,40.42-73.33,12.25-17.68,25.31-33.23,38.74-46.24,11.18-10.83,22.61-19.91,34.05-26.99,9.85-6.1,19.69-10.72,29.38-13.71,8.72-2.69,17.32-4.07,25.66-4.01,7.84.04,15.45,1.35,22.76,4.01,7.3,2.66,13.98,6.56,20.02,11.56,6.42,5.32,12.11,11.89,17.05,19.55,5.51,8.52,10.08,18.39,13.71,29.4,4.21,12.77,7.14,27.08,8.74,42.57,1.92,18.6,1.93,38.9-.04,60.33-2.4,26.08-7.75,53.82-16.18,82.15-2.69,9.05-5.69,18.16-9.02,27.3-9.7,26.65-21.34,51.39-34.28,73.63-22.84,39.26-49.73,70.74-77.17,91.18-31.08,23.16-62.85,32.13-90.2,22.18-27.34-9.95-45.92-37.25-54.85-74.97-7.88-33.29-8.24-74.7-.5-119.46Z"/>
    <path class="st5" d="M367.93,818.46c-4.56-25.33-7.03-52.55-7.03-80.91,0-9.72.29-19.31.86-28.74,1.77-29.5,6.23-57.4,12.89-82.73,5.48-20.81,12.44-39.89,20.61-56.71,6.79-14.01,14.44-26.45,22.76-37.01,7.17-9.1,14.85-16.81,22.93-22.94,7.27-5.51,14.86-9.73,22.72-12.54,7.38-2.63,14.99-4.01,22.76-4.01s15.38,1.38,22.76,4.01c7.86,2.81,15.45,7.03,22.72,12.54,8.08,6.13,15.76,13.84,22.93,22.94,8.32,10.56,15.97,23,22.76,37.01,8.17,16.82,15.13,35.9,20.61,56.71,6.66,25.33,11.12,53.23,12.89,82.73.57,9.43.86,19.02.86,28.74,0,28.36-2.47,55.58-7.03,80.91-8.03,44.71-22.54,83.5-41.33,112.08-21.28,32.39-48.07,51.69-77.17,51.69s-55.89-19.3-77.17-51.69c-18.79-28.58-33.3-67.37-41.33-112.08Z"/>
    <path class="st5" d="M486.43,839.36c-12.94-22.24-24.58-46.98-34.28-73.63-3.33-9.14-6.33-18.25-9.02-27.3-8.43-28.33-13.78-56.07-16.18-82.15-1.97-21.43-1.96-41.73-.04-60.33,1.6-15.49,4.53-29.8,8.74-42.57,3.63-11.01,8.2-20.88,13.71-29.4,4.94-7.66,10.63-14.23,17.05-19.55,6.04-5,12.72-8.9,20.02-11.56,7.31-2.66,14.92-3.97,22.76-4.01,8.34-.06,16.94,1.32,25.66,4.01,9.69,2.99,19.53,7.61,29.38,13.71,11.44,7.08,22.87,16.16,34.05,26.99,13.43,13.01,26.49,28.56,38.74,46.24,14.93,21.52,28.67,46.21,40.42,73.33,3.76,8.67,7.31,17.58,10.64,26.72,9.7,26.65,16.69,53.08,21.07,78.43,7.74,44.76,7.38,86.17-.5,119.46-8.93,37.72-27.51,65.02-54.85,74.97-27.35,9.95-59.12.98-90.2-22.18-27.44-20.44-54.33-51.92-77.17-91.18Z"/>
    <path class="st5" d="M604.93,818.46c-19.76-16.48-39.16-35.75-57.39-57.47-6.25-7.45-12.19-14.98-17.81-22.56-17.6-23.74-32.12-47.97-43.3-71.66-9.18-19.46-16.12-38.54-20.67-56.67-3.8-15.1-5.94-29.54-6.35-42.99-.36-11.59.57-22.44,2.83-32.34,2.02-8.89,5.13-17.02,9.35-24.21,3.95-6.76,8.89-12.7,14.84-17.69,5.95-5,12.67-8.83,20.02-11.56,7.82-2.9,16.36-4.55,25.47-5,10.13-.5,20.97.47,32.32,2.84,13.16,2.74,27.01,7.35,41.22,13.71,17.06,7.63,34.65,17.77,52.22,30.2,21.39,15.12,42.74,33.62,63.06,55.08,6.49,6.86,12.88,14.02,19.13,21.47,18.22,21.72,33.83,44.17,46.62,66.49,22.59,39.42,36.41,78.46,40.38,112.43,4.52,38.5-3.59,70.5-25.88,89.21-22.29,18.7-55.21,21.14-92.34,10.01-32.77-9.82-68.82-30.21-103.72-59.29Z"/>
    <path class="st5" d="M709.15,758.29c-24.21-8.72-49.03-20.19-73.59-34.37-8.42-4.86-16.58-9.91-24.46-15.11-24.66-16.28-46.58-34.09-65.19-52.53-15.28-15.14-28.32-30.7-38.81-46.18-8.73-12.9-15.68-25.74-20.67-38.23-4.3-10.76-7.14-21.27-8.41-31.33-1.13-9.05-.99-17.74.5-25.95,1.41-7.71,4.02-14.99,7.91-21.72,3.88-6.73,8.88-12.63,14.85-17.71,6.36-5.4,13.82-9.87,22.23-13.41,9.35-3.94,19.87-6.73,31.33-8.38,13.32-1.93,27.91-2.33,43.44-1.21,18.65,1.33,38.65,4.84,59.4,10.51,25.27,6.89,51.66,16.97,78.1,30.2,8.45,4.21,16.9,8.76,25.32,13.62,24.55,14.18,46.89,29.94,66.55,46.54,34.7,29.31,61.04,61.27,76.4,91.83,17.41,34.64,20.73,67.49,6.18,92.69-14.55,25.2-44.66,38.75-83.36,40.98-34.15,1.99-74.99-4.84-117.72-20.24Z"/>
    <path class="st5" d="M786.49,666.1c-25.73.09-52.97-2.2-80.89-7.12-9.58-1.69-18.98-3.64-28.16-5.84-28.74-6.86-55.44-16.1-79.23-27.06-19.53-9-37.11-19.16-52.26-30.13-12.62-9.12-23.54-18.81-32.5-28.84-7.72-8.64-13.98-17.55-18.61-26.57-4.17-8.12-7.02-16.34-8.41-24.56-1.32-7.73-1.35-15.46,0-23.11s4.03-14.91,7.91-21.72c4.12-7.24,9.6-13.99,16.28-20.19,7.44-6.9,16.37-13.12,26.59-18.6,11.85-6.37,25.42-11.74,40.39-16,17.98-5.12,37.98-8.66,59.43-10.44,26.1-2.17,54.35-1.72,83.71,1.67,9.38,1.07,18.87,2.45,28.45,4.14,27.92,4.92,54.31,12.09,78.46,20.97,42.64,15.68,78.32,36.7,103.21,60.17,28.2,26.59,42.55,56.32,37.5,84.97-5.05,28.66-28.71,51.69-64.31,67.02-31.41,13.55-72.13,21.1-117.56,21.24Z"/>
    <path class="st5" d="M827.65,553.03c-24.15,8.88-50.54,16.05-78.46,20.97-9.58,1.69-19.07,3.07-28.45,4.14-29.37,3.39-57.62,3.84-83.72,1.67-21.44-1.78-41.44-5.31-59.42-10.44-14.97-4.26-28.54-9.63-40.39-15.99-10.22-5.48-19.15-11.71-26.59-18.61-6.68-6.19-12.16-12.94-16.28-20.18-3.88-6.81-6.56-14.06-7.91-21.72-1.35-7.65-1.32-15.38,0-23.11,1.39-8.22,4.24-16.44,8.41-24.56,4.63-9.03,10.89-17.93,18.61-26.58,8.96-10.03,19.88-19.72,32.5-28.84,15.15-10.97,32.73-21.13,52.26-30.13,23.79-10.96,50.49-20.2,79.23-27.07,9.18-2.19,18.58-4.14,28.16-5.83,27.92-4.92,55.16-7.21,80.89-7.12,45.43.14,86.15,7.7,117.56,21.24,35.6,15.33,59.26,38.36,64.31,67.02,5.05,28.66-9.3,58.39-37.5,84.98-24.89,23.47-60.57,44.49-103.21,60.16Z"/>
    <path class="st5" d="M827.65,432.7c-19.66,16.61-42,32.36-66.55,46.54-8.42,4.86-16.87,9.41-25.32,13.63-26.44,13.22-52.83,23.3-78.1,30.19-20.75,5.67-40.75,9.18-59.4,10.51-15.53,1.12-30.12.73-43.44-1.21-11.47-1.65-21.99-4.45-31.34-8.38-8.41-3.55-15.87-8.01-22.23-13.42-5.97-5.07-10.96-10.96-14.84-17.69s-6.5-14.01-7.91-21.72c-1.49-8.2-1.63-16.9-.5-25.95,1.27-10.06,4.11-20.57,8.41-31.33,4.99-12.5,11.94-25.34,20.67-38.24,10.49-15.48,23.53-31.04,38.81-46.17,18.61-18.44,40.53-36.25,65.19-52.53,7.88-5.21,16.04-10.26,24.46-15.12,24.56-14.18,49.38-25.65,73.59-34.37,42.74-15.4,83.57-22.23,117.72-20.24,38.7,2.24,68.81,15.78,83.36,40.99,14.55,25.2,11.23,58.05-6.18,92.68-15.36,30.56-41.7,62.52-76.4,91.83Z"/>
    <path class="st5" d="M786.49,319.63c-12.79,22.32-28.4,44.77-46.62,66.49-6.25,7.45-12.64,14.61-19.13,21.47-20.32,21.46-41.67,39.96-63.06,55.08-17.56,12.42-35.15,22.57-52.22,30.19-14.21,6.37-28.06,10.98-41.23,13.72-11.35,2.37-22.19,3.34-32.32,2.84-9.11-.45-17.65-2.09-25.46-4.99-7.35-2.73-14.07-6.56-20.02-11.56s-10.9-10.94-14.85-17.71c-4.22-7.19-7.32-15.31-9.34-24.2-2.27-9.9-3.19-20.75-2.83-32.34.41-13.45,2.56-27.89,6.35-42.99,4.55-18.13,11.49-37.21,20.67-56.67,11.18-23.69,25.7-47.92,43.3-71.66,5.62-7.58,11.56-15.11,17.81-22.56,18.23-21.72,37.63-40.99,57.39-57.47,34.9-29.08,70.95-49.47,103.72-59.29,37.13-11.13,70.05-8.69,92.34,10.01,22.29,18.71,30.4,50.71,25.88,89.21-3.97,33.97-17.79,73.01-40.38,112.43Z"/>
    <path class="st5" d="M709.15,227.44c-4.38,25.35-11.37,51.79-21.07,78.44-3.32,9.13-6.88,18.04-10.64,26.7-11.74,27.12-25.48,51.81-40.41,73.34-12.26,17.68-25.32,33.23-38.75,46.24-11.18,10.83-22.61,19.91-34.04,26.99-9.85,6.1-19.7,10.72-29.39,13.72-8.72,2.69-17.31,4.07-25.66,4.01-7.84-.04-15.46-1.35-22.76-4.01s-13.98-6.56-20.02-11.56c-6.42-5.32-12.12-11.89-17.06-19.56-5.5-8.52-10.07-18.39-13.7-29.39-4.21-12.78-7.14-27.09-8.74-42.58-1.92-18.6-1.93-38.9.04-60.32,2.4-26.09,7.75-53.83,16.18-82.16,2.69-9.05,5.7-18.16,9.02-27.29,9.7-26.65,21.34-51.39,34.28-73.64,22.84-39.26,49.73-70.74,77.16-91.19,31.09-23.14,62.86-32.12,90.21-22.16,27.34,9.95,45.92,37.25,54.85,74.96,7.87,33.29,8.24,74.69.5,119.46Z"/>
  </g>
</svg>